<?xml version="1.0" standalone="no"?>
<!DOCTYPE svg PUBLIC "-//W3C//DTD SVG 20010904//EN"
 "http://www.w3.org/TR/2001/REC-SVG-20010904/DTD/svg10.dtd">
<svg version="1.0" xmlns="http://www.w3.org/2000/svg"
 width="170.000000pt" height="170.000000pt" viewBox="0 0 170.000000 170.000000"
 preserveAspectRatio="xMidYMid meet">
<metadata>
Created by potrace 1.11, written by Peter Selinger 2001-2013
</metadata>
<g transform="translate(0.000000,170.000000) scale(0.100000,-0.100000)"
fill="#000000" stroke="none">
<path d="M800 1407 c-19 -6 -52 -29 -73 -50 -37 -37 -38 -39 -20 -54 17 -14
17 -14 -2 -7 -11 4 -42 15 -70 25 l-50 18 -38 -37 c-37 -36 -83 -100 -76 -106
2 -2 13 -9 24 -15 19 -12 18 -12 -5 -7 -14 4 -43 9 -66 12 l-41 6 -13 -60 c-7
-33 -11 -78 -8 -101 4 -43 3 -43 -49 -24 -10 4 -13 -13 -13 -67 0 -66 -1 -71
-19 -65 -18 5 -19 2 -15 -32 3 -21 8 -45 11 -53 4 -8 5 -19 4 -23 0 -4 6 -21
14 -37 18 -34 19 -44 5 -35 -6 3 -13 -1 -16 -10 -8 -19 20 -85 36 -85 5 0 10
-7 10 -15 0 -8 -5 -15 -11 -15 -13 0 -5 -29 24 -88 17 -36 23 -40 28 -25 6 15
8 13 8 -8 1 -25 -2 -26 -84 -38 -107 -15 -275 -57 -289 -72 -8 -9 -6 -10 6 -6
23 8 204 34 295 43 57 5 74 4 77 -7 18 -63 40 -109 51 -109 12 0 35 95 35 143
0 34 17 15 55 -63 21 -44 42 -80 46 -80 8 0 19 62 19 110 0 35 1 34 43 -35
l42 -69 6 44 c10 69 -10 147 -47 185 -25 25 -10 64 32 81 37 16 67 8 78 -21 3
-9 10 -14 15 -11 5 3 12 -10 15 -30 8 -40 37 -74 64 -74 31 0 53 24 72 80 10
30 19 49 19 41 1 -11 7 -9 24 7 21 19 27 21 56 11 17 -6 38 -24 46 -39 13 -25
13 -29 -2 -41 -31 -26 -53 -91 -53 -161 0 -38 3 -68 8 -68 4 0 23 28 42 63
l35 62 9 -68 c5 -37 12 -67 16 -67 4 0 27 39 51 86 l44 86 14 -86 c9 -55 18
-86 26 -86 12 0 55 86 55 111 0 15 117 6 279 -22 63 -10 116 -17 119 -15 11
12 -227 69 -341 82 -56 7 -57 7 -56 38 1 29 1 30 8 6 6 -23 9 -21 34 30 29 57
33 80 17 80 -15 0 -8 22 13 40 9 8 21 30 26 48 8 28 7 32 -9 32 -18 0 -18 2
-4 36 12 28 12 39 3 50 -9 11 -8 14 4 14 8 0 17 13 21 31 10 53 8 61 -15 54
-19 -6 -21 -3 -19 32 6 83 1 106 -17 98 -48 -19 -48 -19 -45 41 2 31 -2 76 -9
101 l-12 45 -48 -6 c-42 -6 -47 -4 -43 11 3 11 -13 41 -41 76 -52 65 -77 71
-154 37 -51 -24 -63 -25 -37 -5 19 15 19 16 -10 46 -47 51 -111 72 -164 56z"/>
</g>
</svg>
